<svg width="144" height="150" viewBox="0 0 144 150" fill="none" xmlns="http://www.w3.org/2000/svg">
<g clip-path="url(#clip0_4_21)">
<path d="M0 0H144V150H0V0Z" fill="black"/>
<path d="M113.442 119H90.402L71.202 90.328H55.714V119H36.002V29.4H76.962C87.6287 29.4 95.906 32.0027 101.794 37.208C107.767 42.4133 110.754 49.6667 110.754 58.968V59.224C110.754 66.4773 108.962 72.408 105.378 77.016C101.879 81.5387 97.2713 84.8667 91.554 87L113.442 119ZM90.786 60.248V59.992C90.786 55.7253 89.4207 52.5253 86.69 50.392C83.9593 48.2587 80.162 47.192 75.298 47.192H55.714V72.92H75.682C80.546 72.92 84.258 71.768 86.818 69.464C89.4633 67.16 90.786 64.088 90.786 60.248Z" fill="white"/>
</g>
<defs>
<clipPath id="clip0_4_21">
<rect width="144" height="150" fill="white"/>
</clipPath>
</defs>
</svg>
